<svg xmlns="http://www.w3.org/2000/svg" xmlns:xlink="http://www.w3.org/1999/xlink" version="1.1" x="0px" y="0px" viewBox="0 0 30 30" enable-background="new 0 0 30 30" xml:space="preserve"><g><path d="M15,7c-4.4,0-8,3.6-8,8s3.6,8,8,8s8-3.6,8-8S19.4,7,15,7z M18.2,16.8c0.4,0.4,0.4,1,0,1.4c-0.2,0.2-0.5,0.3-0.7,0.3   s-0.5-0.1-0.7-0.3L15,16.4l-1.8,1.8c-0.2,0.2-0.5,0.3-0.7,0.3s-0.5-0.1-0.7-0.3c-0.4-0.4-0.4-1,0-1.4l1.8-1.8l-1.8-1.8   c-0.4-0.4-0.4-1,0-1.4s1-0.4,1.4,0l1.8,1.8l1.8-1.8c0.4-0.4,1-0.4,1.4,0s0.4,1,0,1.4L16.4,15L18.2,16.8z"/></g></svg>